<svg xmlns="http://www.w3.org/2000/svg" width="784.181" height="784.181" viewBox="0 0 784.181 784.181"><path d="M1614,5529.091a398.394,398.394,0,0,1-40.089-2.024,391.506,391.506,0,0,1-349.977-349.978,397.97,397.97,0,0,1,0-80.178,391.5,391.5,0,0,1,349.977-349.977,397.949,397.949,0,0,1,80.178,0,391.5,391.5,0,0,1,349.978,349.977,397.97,397.97,0,0,1,0,80.178,391.5,391.5,0,0,1-349.978,349.978A398.4,398.4,0,0,1,1614,5529.091Zm-165.54-490.117c-11.616,24.891-17.506,50.164-17.506,75.117,0,98.776,80.359,179.136,179.135,179.136s179.136-80.36,179.136-179.136-80.36-179.135-179.136-179.135c-24.955,0-50.228,5.89-75.117,17.506l32.2,32.2a135.708,135.708,0,0,1,119.155,16.316,137.166,137.166,0,0,1,49.474,60.053,135.7,135.7,0,0,1,10.74,53.061c0,75.239-61.212,136.45-136.452,136.45s-136.45-61.211-136.45-136.45a135.836,135.836,0,0,1,7.02-42.919l-32.2-32.2Zm72.966,43.628a92.683,92.683,0,0,0-5.8,31.489,94.466,94.466,0,1,0,94.465-94.465,92.708,92.708,0,0,0-31.489,5.8v12.647l24.265,24.265,1-.143a43.512,43.512,0,0,1,6.221-.588,52.482,52.482,0,1,1-52.481,52.481,43.723,43.723,0,0,1,.589-6.23c.048-.332.095-.662.141-.992l-24.264-24.266Zm-79.98-105.661h0a10.495,10.495,0,0,0-7.418,17.917l63.678,63.676a10.491,10.491,0,0,0,7.421,3.075h37.639l59.9,59.9a.434.434,0,0,0,.1.069.436.436,0,0,1,.1.066,10.448,10.448,0,0,0,14.774-14.772.454.454,0,0,1-.065-.1.425.425,0,0,0-.071-.1l-59.9-59.9v-37.639a10.5,10.5,0,0,0-3.075-7.422l-62.978-63.675a10.495,10.495,0,0,0-17.917,7.421v31.489h-32.192Z" transform="translate(-1221.91 -4744.91)" fill="#fff" opacity="0.102"/></svg>